<svg width="320" height="320" viewBox="0 0 320 320" xmlns="http://www.w3.org/2000/svg">
  <path
    d="
      M 40 20
      H 220
      A 20 20 0 0 1 240 40
      V 95
      M 240 225
      V 280
      A 20 20 0 0 1 220 300
      H 40
      A 20 20 0 0 1 20 280
      V 40
      A 20 20 0 0 1 40 20
    "
    fill="none"
    stroke="black"
    stroke-width="20"
  />
  <line
     x1="70"
     y1="100"
     x2="179.69022"
     y2="100"
     stroke="#000000"
     stroke-width="20"
     id="line1" />
  <line
     x1="70"
     y1="160"
     x2="180"
     y2="160"
     stroke="#000000"
     stroke-width="20"
     id="line2" />
  <line
     x1="70"
     y1="220"
     x2="140"
     y2="220"
     stroke="#000000"
     stroke-width="20"
     id="line3" />
  <polygon
     points="100,170 75,195 50,170 50,40 100,40 "
     transform="rotate(45,70,320)"
     fill="#000000"
     id="polygon3" />
  <g
     transform="rotate(45,56,385)"
     id="g3">
    <rect
       x="0"
       y="0"
       width="50"
       height="40"
       rx="15"
       ry="15"
       style="fill:#000000"
       id="rect2" />
    <rect
       x="0"
       y="20"
       width="50"
       height="20"
       style="fill:#000000"
       id="rect3" />
  </g>
  <polygon
     points="180,150 160,170 160,150 "
     fill="#000000"
     id="polygon1"
     transform="translate(70,-55)" />
  <polygon
     points="180,170 160,170 180,150 "
     fill="#000000"
     id="polygon2"
     transform="translate(70,55)" />
</svg>
